<svg height="512" viewBox="0 0 64 64" width="512" xmlns="http://www.w3.org/2000/svg" xmlns:xlink="http://www.w3.org/1999/xlink"><linearGradient id="New_Gradient_Swatch_1" gradientUnits="userSpaceOnUse" x1="32" x2="32" y1="-3.869" y2="67.145"><stop offset="0" stop-color="#fff33b"/><stop offset=".014" stop-color="#fee72e"/><stop offset=".042" stop-color="#fed51b"/><stop offset=".07" stop-color="#fdca10"/><stop offset=".1" stop-color="#fdc70c"/><stop offset=".4" stop-color="#f3903f"/><stop offset=".8" stop-color="#ed683c"/><stop offset="1" stop-color="#e93e3a"/></linearGradient><linearGradient id="New_Gradient_Swatch_1-2" x1="56" x2="56" xlink:href="#New_Gradient_Swatch_1" y1="-3.869" y2="67.145"/><linearGradient id="New_Gradient_Swatch_1-3" x1="8" x2="8" xlink:href="#New_Gradient_Swatch_1" y1="-3.869" y2="67.145"/><g id="mail-heart-love-email-romance"><path d="m61.57 22.18-29-20a.993.993 0 0 0 -1.14 0l-29 20a.983.983 0 0 0 -.43.82v38a1 1 0 0 0 1 1h58a1 1 0 0 0 1-1v-38a.983.983 0 0 0 -.43-.82zm-29.57-17.97 27.34 18.86-21.32 17.62-4.3-3.56c3.51-2.22 13.28-9.02 13.28-16.13a8.993 8.993 0 0 0 -15-6.7 8.993 8.993 0 0 0 -15 6.7c0 7.11 9.77 13.91 13.28 16.13l-4.3 3.56-21.32-17.62zm0 31.62c-2.44-1.48-13-8.31-13-14.83a6.994 6.994 0 0 1 12.25-4.62 1.033 1.033 0 0 0 1.5 0 6.994 6.994 0 0 1 12.25 4.62c0 6.51-10.56 13.35-13 14.83zm-28-10.71 20.41 16.86-20.41 16.89zm1.78 34.88 26.22-21.7 26.22 21.7zm54.22-1.13-20.41-16.89 20.41-16.86z" fill="url(#New_Gradient_Swatch_1)"/><path d="m56 14c1.47 0 6-3.6 6-8a4 4 0 0 0 -4-4 3.949 3.949 0 0 0 -2 .546 3.949 3.949 0 0 0 -2-.546 4 4 0 0 0 -4 4c0 4.4 4.53 8 6 8zm-2-10a1.974 1.974 0 0 1 1.331.521 1 1 0 0 0 1.338 0 1.974 1.974 0 0 1 1.331-.521 2 2 0 0 1 2 2c0 3.131-3.118 5.6-4 5.973-.882-.373-4-2.842-4-5.973a2 2 0 0 1 2-2z" fill="url(#New_Gradient_Swatch_1-2)"/><path d="m8 14c1.47 0 6-3.6 6-8a4 4 0 0 0 -4-4 3.949 3.949 0 0 0 -2 .546 3.949 3.949 0 0 0 -2-.546 4 4 0 0 0 -4 4c0 4.4 4.53 8 6 8zm-2-10a1.974 1.974 0 0 1 1.331.521 1 1 0 0 0 1.338 0 1.974 1.974 0 0 1 1.331-.521 2 2 0 0 1 2 2c0 3.131-3.118 5.6-4 5.973-.882-.373-4-2.842-4-5.973a2 2 0 0 1 2-2z" fill="url(#New_Gradient_Swatch_1-3)"/></g></svg>