<svg id="Capa_1" enable-background="new 0 0 512 512" height="512" viewBox="0 0 512 512" width="512" xmlns="http://www.w3.org/2000/svg"><g><path d="m493.431 50.675h-351.183c-4.312 0-8.231-2.504-10.044-6.417l-14.055-30.342c-1.812-3.913-5.732-6.416-10.044-6.416h-89.536c-6.113 0-11.069 4.956-11.069 11.069v474.862c0 6.113 4.956 11.069 11.069 11.069h29.16l456.771-415.178v-27.578c0-6.114-4.955-11.069-11.069-11.069z" fill="#9dc6fb"/><path d="m90.649 13.916 14.055 30.342c1.812 3.913 5.732 6.417 10.044 6.417h27.5c-4.312 0-8.231-2.504-10.044-6.417l-14.055-30.342c-1.812-3.913-5.732-6.416-10.044-6.416h-27.5c4.312 0 8.232 2.504 10.044 6.416z" fill="#80b4fb"/><path d="m493.431 50.675h-27.5c6.113 0 11.069 4.956 11.069 11.069v49.097l27.5-21.519v-27.578c0-6.114-4.955-11.069-11.069-11.069z" fill="#80b4fb"/><path d="m493.431 504.5h-445.702v-399.44c0-8.692 7.046-15.738 15.738-15.738h441.033v404.109c0 6.113-4.955 11.069-11.069 11.069z" fill="#f9f6f9"/><path d="m477 89.322v404.109c0 6.113-4.956 11.069-11.069 11.069h27.5c6.113 0 11.069-4.956 11.069-11.069v-404.109z" fill="#dddaec"/><g><path d="m294.407 136.308h-36.585c-26.106 0-47.363 24.878-47.575 55.755-.174 25.234-2.71 46.42-10.871 62.731-1.287 2.573-.023 5.703 2.708 6.606 44.339 14.667 103.723 14.667 148.062 0 2.731-.904 3.995-4.033 2.708-6.606-8.161-16.311-10.697-37.497-10.871-62.731-.213-30.877-21.469-55.755-47.576-55.755z" fill="#365e7d"/><path d="m315.808 197.117c.18 28.479 2.893 52.228 11.748 70.252 7.839-1.606 15.411-3.595 22.589-5.97 2.731-.904 3.995-4.033 2.708-6.606-8.161-16.311-10.697-37.497-10.871-62.731-.213-30.877-21.469-55.755-47.575-55.755h-26.174c26.106.001 47.363 27.134 47.575 60.81z" fill="#2b4d66"/><path d="m328.526 348.996h-104.823c-2.907 0-5.264-2.357-5.264-5.264v-52.655c0-20.195 16.371-36.566 36.566-36.566h42.218c20.195 0 36.566 16.371 36.566 36.566v52.655c.001 2.907-2.356 5.264-5.263 5.264z" fill="#df73c1"/><path d="m297.224 254.511h-21.684c20.195 0 36.566 16.371 36.566 36.566v57.919h16.421c2.907 0 5.264-2.357 5.264-5.264v-52.655c-.001-20.195-16.372-36.566-36.567-36.566z" fill="#dd4fb1"/><path d="m276.115 284.737c-24.116 0-43.666-19.55-43.666-43.666v-43.666h87.332v43.666c0 24.116-19.55 43.666-43.666 43.666z" fill="#ffcbbe"/><path d="m298.815 197.405v43.666c0 20.501-14.132 37.694-33.183 42.391 3.359.828 6.868 1.275 10.483 1.275 24.116 0 43.666-19.55 43.666-43.666v-43.666z" fill="#eaac9d"/></g><g><path d="m319.266 454.029h-83.721c-4.346 0-7.868-3.523-7.868-7.868v-30.215c0-4.346 3.523-7.868 7.868-7.868h83.721c4.346 0 7.868 3.523 7.868 7.868v30.215c0 4.345-3.522 7.868-7.868 7.868z" fill="#b3e59f"/><path d="m319.266 408.078h-26.439c4.345 0 7.868 3.523 7.868 7.868v30.215c0 4.346-3.523 7.868-7.868 7.868h26.439c4.346 0 7.868-3.523 7.868-7.868v-30.215c0-4.346-3.522-7.868-7.868-7.868z" fill="#95d6a4"/></g><g><path d="m43.361 38.474c-4.143 0-7.5 3.357-7.5 7.5s3.357 7.5 7.5 7.5h42.597c4.143 0 7.5-3.357 7.5-7.5s-3.357-7.5-7.5-7.5z"/><path d="m493.432 43.175h-93.719c-4.143 0-7.5 3.357-7.5 7.5s3.357 7.5 7.5 7.5h93.719c1.968 0 3.568 1.602 3.568 3.569v20.077h-433.533c-12.813 0-23.237 10.425-23.237 23.238v316.107c0 4.143 3.357 7.5 7.5 7.5s7.5-3.357 7.5-7.5v-316.106c0-4.543 3.695-8.238 8.237-8.238h433.533v396.609c0 1.968-1.601 3.569-3.568 3.569h-438.203v-45.846c0-4.143-3.357-7.5-7.5-7.5s-7.5 3.357-7.5 7.5v45.846h-21.66c-1.968 0-3.569-1.602-3.569-3.569v-474.862c0-1.967 1.602-3.569 3.569-3.569h89.536c1.386 0 2.656.812 3.238 2.068l14.055 30.342c3.029 6.539 9.643 10.765 16.85 10.765h227.478c4.143 0 7.5-3.357 7.5-7.5s-3.357-7.5-7.5-7.5h-227.478c-1.385 0-2.656-.812-3.238-2.069l-14.056-30.343c-3.029-6.538-9.642-10.763-16.849-10.763h-89.536c-10.239 0-18.569 8.33-18.569 18.569v474.861c0 10.24 8.33 18.57 18.569 18.57h474.862c10.239 0 18.569-8.33 18.569-18.569v-431.687c0-10.239-8.33-18.569-18.568-18.569z"/><path d="m359.922 261.626c1.366-3.289 1.233-7.003-.361-10.188-6.78-13.553-9.889-31.881-10.078-59.428-.239-34.851-24.946-63.203-55.075-63.203h-36.585c-30.128 0-54.835 28.353-55.075 63.203-.189 27.547-3.298 45.875-10.078 59.427-1.595 3.188-1.727 6.902-.36 10.19 1.358 3.27 4.062 5.782 7.419 6.892 4.838 1.601 9.928 3.05 15.21 4.34-2.577 5.649-3.997 11.845-3.997 18.218v52.655c0 7.038 5.726 12.764 12.763 12.764h49.536c4.143 0 7.5-3.357 7.5-7.5s-3.357-7.5-7.5-7.5h-47.301v-50.419c0-7.722 3.121-15.072 8.443-20.457 9.279 13.067 24.521 21.617 41.732 21.617s32.452-8.551 41.732-21.617c5.323 5.385 8.443 12.736 8.443 20.457v50.419h-23.063c-4.143 0-7.5 3.357-7.5 7.5s3.357 7.5 7.5 7.5h25.3c7.038 0 12.764-5.726 12.764-12.764v-52.655c0-6.373-1.421-12.569-3.998-18.218 5.281-1.289 10.371-2.738 15.208-4.338 3.358-1.112 6.063-3.625 7.421-6.895zm-83.807 15.611c-19.942 0-36.166-16.224-36.166-36.166v-36.166h72.332v36.166c0 19.943-16.223 36.166-36.166 36.166zm51.883-17.647c-1.013-.993-2.074-1.94-3.185-2.836 1.596-4.945 2.468-10.213 2.468-15.682v-43.666c0-4.143-3.357-7.5-7.5-7.5h-87.332c-4.143 0-7.5 3.357-7.5 7.5v43.666c0 5.469.872 10.737 2.468 15.682-1.111.896-2.172 1.843-3.185 2.836-5.844-1.252-11.468-2.699-16.77-4.343 6.903-15.306 10.09-34.985 10.284-63.133.184-26.637 18.161-48.307 40.075-48.307h36.585c21.915 0 39.893 21.67 40.075 48.307.194 28.146 3.381 47.826 10.284 63.133-5.3 1.644-10.924 3.091-16.767 4.343z"/><path d="m235.545 400.578c-8.475 0-15.369 6.895-15.369 15.368v30.215c0 8.474 6.895 15.368 15.369 15.368h83.721c8.475 0 15.369-6.895 15.369-15.368v-30.215c0-8.474-6.895-15.368-15.369-15.368zm84.09 15.368v30.215c0 .203-.166.368-.369.368h-83.721c-.203 0-.369-.165-.369-.368v-30.215c0-.203.166-.368.369-.368h83.721c.203 0 .369.165.369.368z"/><path d="m88.952 190.449h80.047c4.143 0 7.5-3.357 7.5-7.5s-3.357-7.5-7.5-7.5h-80.047c-4.143 0-7.5 3.357-7.5 7.5s3.358 7.5 7.5 7.5z"/><path d="m88.952 232.156h80.047c4.143 0 7.5-3.357 7.5-7.5s-3.357-7.5-7.5-7.5h-80.047c-4.143 0-7.5 3.357-7.5 7.5s3.358 7.5 7.5 7.5z"/><path d="m88.952 273.864h80.047c4.143 0 7.5-3.357 7.5-7.5s-3.357-7.5-7.5-7.5h-80.047c-4.143 0-7.5 3.357-7.5 7.5s3.358 7.5 7.5 7.5z"/><path d="m88.952 315.571h80.047c4.143 0 7.5-3.357 7.5-7.5s-3.357-7.5-7.5-7.5h-80.047c-4.143 0-7.5 3.357-7.5 7.5s3.358 7.5 7.5 7.5z"/><path d="m88.952 357.278h80.047c4.143 0 7.5-3.357 7.5-7.5s-3.357-7.5-7.5-7.5h-80.047c-4.143 0-7.5 3.357-7.5 7.5s3.358 7.5 7.5 7.5z"/><path d="m88.952 398.986h80.047c4.143 0 7.5-3.357 7.5-7.5s-3.357-7.5-7.5-7.5h-80.047c-4.143 0-7.5 3.357-7.5 7.5s3.358 7.5 7.5 7.5z"/><path d="m383.23 190.449h80.048c4.143 0 7.5-3.357 7.5-7.5s-3.357-7.5-7.5-7.5h-80.048c-4.143 0-7.5 3.357-7.5 7.5s3.358 7.5 7.5 7.5z"/><path d="m383.23 232.156h80.048c4.143 0 7.5-3.357 7.5-7.5s-3.357-7.5-7.5-7.5h-80.048c-4.143 0-7.5 3.357-7.5 7.5s3.358 7.5 7.5 7.5z"/><path d="m383.23 273.864h80.048c4.143 0 7.5-3.357 7.5-7.5s-3.357-7.5-7.5-7.5h-80.048c-4.143 0-7.5 3.357-7.5 7.5s3.358 7.5 7.5 7.5z"/><path d="m383.23 315.571h80.048c4.143 0 7.5-3.357 7.5-7.5s-3.357-7.5-7.5-7.5h-80.048c-4.143 0-7.5 3.357-7.5 7.5s3.358 7.5 7.5 7.5z"/><path d="m383.23 357.278h80.048c4.143 0 7.5-3.357 7.5-7.5s-3.357-7.5-7.5-7.5h-80.048c-4.143 0-7.5 3.357-7.5 7.5s3.358 7.5 7.5 7.5z"/><path d="m383.23 398.986h80.048c4.143 0 7.5-3.357 7.5-7.5s-3.357-7.5-7.5-7.5h-80.048c-4.143 0-7.5 3.357-7.5 7.5s3.358 7.5 7.5 7.5z"/></g></g></svg>