<svg id="Capa_1" enable-background="new 0 0 512 512" height="512" viewBox="0 0 512 512" width="512" xmlns="http://www.w3.org/2000/svg"><g><path d="m452.425 54.788h-61.629c-4.143 0-7.5 3.357-7.5 7.5s3.357 7.5 7.5 7.5h61.629c4.143 0 7.5-3.357 7.5-7.5s-3.357-7.5-7.5-7.5z"/><path d="m452.425 88.368h-61.629c-4.143 0-7.5 3.357-7.5 7.5s3.357 7.5 7.5 7.5h61.629c4.143 0 7.5-3.357 7.5-7.5s-3.357-7.5-7.5-7.5z"/><path d="m504.5 71.623c4.143 0 7.5-3.357 7.5-7.5v-37.511c0-8.022-6.527-14.549-14.55-14.549h-151.678c-8.022 0-14.55 6.526-14.55 14.549v64.815c-33.75-20-72.095-30.517-111.708-30.517-58.634 0-113.759 22.833-155.22 64.294-41.46 41.46-64.294 96.584-64.294 155.219v.001c0 54.774 20.291 107.232 57.135 147.713 1.48 1.626 3.51 2.451 5.548 2.451 1.802 0 3.609-.646 5.046-1.953 3.063-2.788 3.286-7.532.498-10.596-23.76-26.104-40.124-57.559-47.95-91.374 11.106 11.875 26.597 22.705 46.092 32 15.607 7.44 33.151 13.606 52.072 18.394 5.116 20.656 11.906 39.757 20.235 56.604 9.46 19.135 20.442 34.407 32.467 45.455-29.937-7.296-58.083-21.3-82.035-41.149-3.188-2.643-7.917-2.2-10.561.988-2.643 3.189-2.2 7.918.989 10.561 39.234 32.514 88.945 50.42 139.977 50.42 58.634 0 113.759-22.834 155.22-64.295 41.461-41.46 64.294-96.585 64.294-155.219v-.002c0-48.723-16.234-96.003-45.903-134.329h104.326c8.022 0 14.55-6.526 14.55-14.549v-37.512c0-4.143-3.357-7.5-7.5-7.5s-7.5 3.357-7.5 7.5v37.061h-112.499c-3.624 0-7.099 1.343-9.783 3.781l-28.496 25.889v-133.7h150.778v37.061c0 4.142 3.358 7.499 7.5 7.499zm-222.138 53.566c8.809 15.752 16.126 34.341 21.722 54.846-26.427-5.366-55.06-8.188-84.57-8.188-19.353 0-38.515 1.237-57.021 3.648-4.73-7.743-12.166-13.661-20.984-16.428 18.579-52.179 47.529-83.158 78.005-83.158 22.757 0 45.077 17.501 62.848 49.28zm141.666 155.235c0 23.946-20.536 46.924-57.825 64.702-12.724 6.066-26.839 11.238-41.999 15.463 2.494-12.585 4.404-25.655 5.683-39.045 18.217-2.697 32.243-18.435 32.243-37.391 0-18.727-13.691-34.308-31.587-37.282-1.241-16.043-3.375-31.669-6.332-46.61 15.158 4.225 29.27 9.396 41.993 15.461 37.287 17.776 57.823 40.754 57.824 64.702zm-99.7-19.073c12.573 0 22.802 10.229 22.802 22.802s-10.229 22.803-22.802 22.803-22.803-10.229-22.803-22.803 10.229-22.802 22.803-22.802zm-8.793-13.957c-16.617 3.975-29.01 18.942-29.01 36.759 0 17.588 12.073 32.409 28.367 36.611-1.489 15.331-3.812 30.026-6.855 43.887-27.295 6.121-57.367 9.35-88.523 9.35-31.18 0-61.273-3.233-88.585-9.363-5.72-26.135-8.729-54.688-8.729-84.214 0-16.188.923-32.248 2.737-47.854 1.725.242 3.483.376 5.274.376 20.844 0 37.802-16.958 37.802-37.802 0-1.761-.131-3.491-.365-5.188 16.866-2.059 34.28-3.108 51.866-3.108 31.162 0 61.239 3.229 88.538 9.353 3.554 16.228 6.082 33.424 7.483 51.193zm-185.325-75.053c12.573 0 22.802 10.229 22.802 22.803s-10.229 22.802-22.802 22.802-22.802-10.229-22.802-22.802 10.229-22.803 22.802-22.803zm41.251-90.715c-18.158 16.562-33.879 42.524-45.304 75.936-17.755 1.901-31.868 16.143-33.572 33.956-26.863 9.311-49.342 21.616-65.161 35.725-2.573 2.295-4.951 4.644-7.173 7.031 17.398-75.146 76.335-134.548 151.21-152.648zm-98.636 263.499c-37.289-17.777-57.825-40.756-57.825-64.701v-.001c0-28.438 29.489-55.663 79.266-73.593 2.806 8.609 8.619 15.871 16.199 20.533-2.158 17.268-3.265 35.091-3.265 53.06 0 27.874 2.61 54.963 7.585 80.154-15.145-4.223-29.247-9.391-41.96-15.452zm79.298 81.891c-6.869-13.895-12.633-29.447-17.216-46.211 26.438 5.371 55.083 8.196 84.608 8.196 29.502 0 58.126-2.82 84.547-8.184-17.043 62.312-49.222 104.12-84.547 104.12-24.994 0-48.927-20.571-67.392-57.921zm115.553 52.179c9.563-8.726 18.479-20.081 26.448-33.877 11.061-19.148 20.009-42.432 26.407-68.245 18.941-4.791 36.504-10.96 52.126-18.408 19.499-9.296 34.992-20.128 46.098-32.005-17.414 75.067-76.284 134.41-151.079 152.535zm87.879-306.646 22.908-20.811c19.581 24.168 33.276 52.393 40.247 82.399-11.103-11.858-26.58-22.673-46.052-31.957-15.619-7.446-33.178-13.615-52.115-18.405-6.128-24.743-14.609-47.167-25.089-65.909-8.318-14.874-17.69-27.039-27.786-36.253 22.497 5.425 43.951 14.664 63.554 27.475v52.692c0 5.842 3.318 10.94 8.66 13.305 5.372 2.377 11.372 1.373 15.673-2.536z"/></g></svg>